Coordinates
version=1
nRows=49
nColumns=12
inDegrees=yes

Units are S.I. units (second, meters, Newtons, ...)
Angles are in degrees

endheader
time	SC_y	SC_z	SC_x	AC_y	AC_z	AC_x	GH_y	GH_z	GH_yy	EL_x	PS_y
       0.0               -27.5          20.11          25.99          67.36         0.4131          13.75          -76.2          69.14          179.6          127.0          6.218
  0.006544               -27.5          20.11          25.99          67.36         0.4127          13.75         -76.19          69.14          179.6          126.9          6.223
   0.01309               -27.5          20.11          25.99          67.36         0.4124          13.74         -76.18          69.14          179.6          126.9          6.228
   0.01963               -27.5          20.11           26.0          67.36          0.412          13.74         -76.17          69.14          179.6          126.9          6.233
   0.02618               -27.5           20.1           26.0          67.36         0.4115          13.73         -76.16          69.13          179.5          126.9          6.239
   0.03272               -27.5           20.1           26.0          67.36         0.4111          13.73         -76.15          69.13          179.5          126.9          6.246
   0.03927               -27.5           20.1           26.0          67.36         0.4106          13.72         -76.14          69.13          179.5          126.9          6.252
   0.04581              -27.49           20.1           26.0          67.35         0.4101          13.72         -76.12          69.13          179.5          126.9          6.259
   0.05235              -27.49          20.09           26.0          67.35         0.4095          13.71         -76.11          69.12          179.5          126.9          6.267
    0.0589              -27.49          20.09          26.01          67.35         0.4089           13.7          -76.1          69.12          179.5          126.8          6.275
   0.06544              -27.49          20.09          26.01          67.35         0.4083          13.69         -76.08          69.12          179.4          126.8          6.284
   0.07199              -27.49          20.09          26.01          67.35         0.4076          13.69         -76.06          69.11          179.4          126.8          6.294
   0.07853              -27.49          20.08          26.01          67.35         0.4068          13.68         -76.04          69.11          179.4          126.8          6.304
   0.08508              -27.48          20.08          26.02          67.35          0.406          13.67         -76.03           69.1          179.4          126.8          6.315
   0.09162              -27.48          20.07          26.02          67.35         0.4052          13.66          -76.0           69.1          179.3          126.7          6.327
   0.09816              -27.48          20.07          26.02          67.35         0.4042          13.65         -75.98          69.09          179.3          126.7          6.341
    0.1047              -27.48          20.06          26.03          67.34         0.4032          13.63         -75.96          69.09          179.3          126.7          6.355
    0.1113              -27.47          20.06          26.03          67.34         0.4021          13.62         -75.93          69.08          179.2          126.6           6.37
    0.1178              -27.47          20.05          26.04          67.34         0.4009          13.61          -75.9          69.07          179.2          126.6          6.387
    0.1243              -27.47          20.05          26.04          67.34         0.3995          13.59         -75.87          69.06          179.1          126.6          6.406
    0.1309              -27.46          20.04          26.05          67.34         0.3981          13.57         -75.83          69.06          179.1          126.5          6.426
    0.1374              -27.46          20.03          26.05          67.33         0.3964          13.55         -75.79          69.05          179.0          126.5          6.448
     0.144              -27.45          20.02          26.06          67.33         0.3946          13.53         -75.75          69.04          178.9          126.4          6.473
    0.1505              -27.45          20.01          26.07          67.33         0.3927          13.51          -75.7          69.03          178.9          126.4            6.5
    0.1571              -27.44           20.0          26.08          67.32         0.3905          13.48         -75.65          69.01          178.8          126.3          6.531
    0.1636              -27.44          19.99          26.09          67.32          0.388          13.45         -75.59           69.0          178.7          126.3          6.565
    0.1702              -27.43          19.98           26.1          67.31         0.3853          13.42         -75.52          68.98          178.6          126.2          6.603
    0.1767              -27.42          19.96          26.11          67.31         0.3822          13.39         -75.45          68.96          178.5          126.1          6.646
    0.1832              -27.41          19.95          26.12           67.3         0.3787          13.34         -75.36          68.94          178.4          126.0          6.694
    0.1898               -27.4          19.93          26.14           67.3         0.3747           13.3         -75.27          68.92          178.2          125.9          6.749
    0.1963              -27.39          19.91          26.15          67.29         0.3702          13.24         -75.16           68.9          178.1          125.7          6.812
    0.2029              -27.38          19.88          26.17          67.28          0.365          13.18         -75.03          68.87          177.9          125.6          6.884
    0.2094              -27.36          19.85           26.2          67.27          0.359          13.11         -74.89          68.83          177.7          125.4          6.967
     0.216              -27.34          19.82          26.22          67.26          0.352          13.03         -74.72          68.79          177.4          125.2          7.063
    0.2225              -27.32          19.78          26.25          67.25         0.3439          12.93         -74.52          68.74          177.1          125.0          7.176
    0.2291              -27.29          19.73          26.29          67.23         0.3343          12.82         -74.29          68.69          176.8          124.7          7.309
    0.2356              -27.26          19.68          26.33          67.21         0.3228          12.68         -74.02          68.62          176.4          124.4          7.467
    0.2421              -27.23          19.61          26.39          67.19         0.3091          12.52         -73.68          68.54          175.9          124.0          7.657
    0.2487              -27.18          19.53          26.45          67.17         0.2926          12.33         -73.28          68.45          175.3          123.6          7.886
    0.2552              -27.13          19.43          26.53          67.13         0.2723          12.09         -72.79          68.33          174.6          123.0          8.166
    0.2618              -27.06          19.31          26.62          67.09         0.2474          11.79         -72.19          68.19          173.7          122.3          8.512
    0.2683              -26.98          19.16          26.74          67.04         0.2162          11.42         -71.44          68.01          172.6          121.4          8.944
    0.2749              -26.88          18.97          26.89          66.98          0.177          10.96         -70.49          67.78          171.2          120.3          9.487
    0.2814              -26.75          18.73          27.08           66.9         0.1271          10.37         -69.29          67.49          169.5          118.9          10.18
    0.2879              -26.58          18.43          27.32           66.8        0.06323          9.617         -67.74          67.13          167.2          117.1          11.06
    0.2945              -26.36          18.03          27.63          66.67       -0.01871          8.648         -65.76          66.65          164.3          114.8           12.2
     0.301              -26.09          17.53          28.03           66.5        -0.1234          7.411         -63.23          66.05          160.6          111.9          13.64
    0.3076              -25.74          16.89          28.53          66.29         -0.255          5.856         -60.05          65.29          155.9          108.2          15.47
    0.3141              -25.31          16.12          29.14          66.03        -0.4153          3.961         -56.18          64.37          150.2          103.7          17.69
